<svg width="18" height="18" viewBox="0 0 18 18" fill="none" xmlns="http://www.w3.org/2000/svg">
<path d="M14.25 1.5H3.75C2.9175 1.5 2.25 2.175 2.25 3V13.5C2.25 14.325 2.925 15 3.75 15H6.75L8.4675 16.7175C8.76 17.01 9.2325 17.01 9.525 16.7175L11.25 15H14.25C15.075 15 15.75 14.325 15.75 13.5V3C15.75 2.175 15.075 1.5 14.25 1.5ZM9 3.975C10.1175 3.975 11.025 4.8825 11.025 6C11.025 7.1175 10.1175 8.025 9 8.025C7.8825 8.025 6.975 7.1175 6.975 6C6.975 4.8825 7.8825 3.975 9 3.975ZM13.5 12H4.5V11.325C4.5 9.825 7.5 9 9 9C10.5 9 13.5 9.825 13.5 11.325V12Z" fill="black"/>
</svg>
