<svg width="6" height="9" viewBox="0 0 6 9" fill="none" xmlns="http://www.w3.org/2000/svg">
<path d="M4.50391 8.63965C4.61621 8.74707 4.75293 8.80566 4.90918 8.80566C5.23633 8.80566 5.49023 8.55176 5.49023 8.22949C5.49023 8.06836 5.42676 7.92188 5.31445 7.80957L1.89648 4.46973L5.31445 1.13965C5.42676 1.02734 5.49023 0.875977 5.49023 0.719727C5.49023 0.397461 5.23633 0.143555 4.90918 0.143555C4.75293 0.143555 4.61621 0.202148 4.50879 0.30957L0.709961 4.02051C0.573242 4.14746 0.504883 4.30371 0.504883 4.47461C0.504883 4.64551 0.573242 4.79199 0.705078 4.92383L4.50391 8.63965Z" fill="#10DB85"/>
</svg>
