<svg width="54" height="54" viewBox="0 0 54 54" fill="none" xmlns="http://www.w3.org/2000/svg">
<path fill-rule="evenodd" clip-rule="evenodd" d="M46.8479 31.6296C45.6712 31.2111 44.3887 31.8254 43.9769 32.9999C41.4389 40.1774 34.6147 44.9991 27.0007 44.9991C17.0759 44.9991 9.00068 36.9261 9.00068 26.9991C9.00068 19.3851 13.8224 12.5609 20.9999 10.0229C22.1722 9.61112 22.7864 8.32637 22.3724 7.15412C21.9584 5.98412 20.6737 5.36762 19.5014 5.78387C10.5284 8.95412 4.50068 17.4794 4.50068 26.9991C4.50068 39.4056 14.5942 49.4991 27.0007 49.4991C36.5204 49.4991 45.0457 43.4736 48.2182 34.4984C48.6322 33.3284 48.0202 32.0436 46.8479 31.6296ZM31.5 22.5V9.15973C38.3873 10.1497 43.8503 15.6105 44.8403 22.5H31.5ZM29.25 4.5C28.008 4.5 27 5.50575 27 6.75V24.75C27 25.9942 28.008 27 29.25 27H47.25C48.492 27 49.5 25.9942 49.5 24.75C49.5 13.5833 40.4145 4.5 29.25 4.5Z" fill="#10DB85"/>
<mask id="mask0" mask-type="alpha" maskUnits="userSpaceOnUse" x="4" y="4" width="46" height="46">
<path fill-rule="evenodd" clip-rule="evenodd" d="M46.8479 31.6296C45.6712 31.2111 44.3887 31.8254 43.9769 32.9999C41.4389 40.1774 34.6147 44.9991 27.0007 44.9991C17.0759 44.9991 9.00068 36.9261 9.00068 26.9991C9.00068 19.3851 13.8224 12.5609 20.9999 10.0229C22.1722 9.61112 22.7864 8.32637 22.3724 7.15412C21.9584 5.98412 20.6737 5.36762 19.5014 5.78387C10.5284 8.95412 4.50068 17.4794 4.50068 26.9991C4.50068 39.4056 14.5942 49.4991 27.0007 49.4991C36.5204 49.4991 45.0457 43.4736 48.2182 34.4984C48.6322 33.3284 48.0202 32.0436 46.8479 31.6296ZM31.5 22.5V9.15973C38.3873 10.1497 43.8503 15.6105 44.8403 22.5H31.5ZM29.25 4.5C28.008 4.5 27 5.50575 27 6.75V24.75C27 25.9942 28.008 27 29.25 27H47.25C48.492 27 49.5 25.9942 49.5 24.75C49.5 13.5833 40.4145 4.5 29.25 4.5Z" fill="white"/>
</mask>
<g mask="url(#mask0)">
</g>
</svg>
