<svg width="40" height="40" viewBox="0 0 40 40" fill="none" xmlns="http://www.w3.org/2000/svg">
<path fill-rule="evenodd" clip-rule="evenodd" d="M34.7022 23.4293C33.8305 23.1193 32.8805 23.5743 32.5755 24.4443C30.6955 29.761 25.6405 33.3327 20.0005 33.3327C12.6488 33.3327 6.66716 27.3527 6.66716 19.9993C6.66716 14.3593 10.2388 9.30433 15.5555 7.42433C16.4238 7.11933 16.8788 6.16767 16.5722 5.29933C16.2655 4.43267 15.3138 3.976 14.4455 4.28433C7.79883 6.63267 3.33383 12.9477 3.33383 19.9993C3.33383 29.1893 10.8105 36.666 20.0005 36.666C27.0522 36.666 33.3672 32.2027 35.7172 25.5543C36.0238 24.6877 35.5705 23.736 34.7022 23.4293M23.3333 16.6666V6.78497C28.435 7.5183 32.4817 11.5633 33.215 16.6666H23.3333ZM21.6667 3.33331C20.7467 3.33331 20 4.07831 20 4.99998V18.3333C20 19.255 20.7467 20 21.6667 20H35C35.92 20 36.6667 19.255 36.6667 18.3333C36.6667 10.0616 29.9367 3.33331 21.6667 3.33331V3.33331Z" fill="black"/>
<mask id="mask0" mask-type="alpha" maskUnits="userSpaceOnUse" x="3" y="3" width="34" height="34">
<path fill-rule="evenodd" clip-rule="evenodd" d="M34.7022 23.4293C33.8305 23.1193 32.8805 23.5743 32.5755 24.4443C30.6955 29.761 25.6405 33.3327 20.0005 33.3327C12.6488 33.3327 6.66716 27.3527 6.66716 19.9993C6.66716 14.3593 10.2388 9.30433 15.5555 7.42433C16.4238 7.11933 16.8788 6.16767 16.5722 5.29933C16.2655 4.43267 15.3138 3.976 14.4455 4.28433C7.79883 6.63267 3.33383 12.9477 3.33383 19.9993C3.33383 29.1893 10.8105 36.666 20.0005 36.666C27.0522 36.666 33.3672 32.2027 35.7172 25.5543C36.0238 24.6877 35.5705 23.736 34.7022 23.4293M23.3333 16.6666V6.78497C28.435 7.5183 32.4817 11.5633 33.215 16.6666H23.3333ZM21.6667 3.33331C20.7467 3.33331 20 4.07831 20 4.99998V18.3333C20 19.255 20.7467 20 21.6667 20H35C35.92 20 36.6667 19.255 36.6667 18.3333C36.6667 10.0616 29.9367 3.33331 21.6667 3.33331V3.33331Z" fill="white"/>
</mask>
<g mask="url(#mask0)">
</g>
</svg>
