<svg width="15" height="13" viewBox="0 0 15 13" fill="none" xmlns="http://www.w3.org/2000/svg">
<path d="M15 6.35938C15 6.21094 14.9375 6.07812 14.8203 5.96875L9.60156 0.734375C9.45312 0.585938 9.32031 0.53125 9.17969 0.53125C8.88281 0.53125 8.66406 0.75 8.66406 1.03906C8.66406 1.1875 8.71094 1.32031 8.80469 1.42188L11.1406 3.78125L13.4453 5.92188L11.6328 5.83594H1.00781C0.710938 5.83594 0.492188 6.05469 0.492188 6.35938C0.492188 6.66406 0.710938 6.88281 1.00781 6.88281H11.6328L13.4531 6.79688L11.1406 8.9375L8.80469 11.2969C8.71094 11.3906 8.66406 11.5312 8.66406 11.6719C8.66406 11.9609 8.88281 12.1797 9.17969 12.1797C9.32031 12.1797 9.44531 12.1328 9.5625 12.0234L14.8203 6.75C14.9375 6.64062 15 6.50781 15 6.35938Z" fill="black"/>
</svg>
