<svg width="9" height="8" viewBox="0 0 9 8" fill="none" xmlns="http://www.w3.org/2000/svg">
<path d="M0.71582 6.97266C0.510742 7.17773 0.500977 7.54395 0.720703 7.75879C0.935547 7.97363 1.30176 7.96875 1.50684 7.76367L4.49512 4.77051L7.48828 7.76367C7.69824 7.97363 8.05957 7.97363 8.27441 7.75879C8.48438 7.53906 8.48926 7.18262 8.27441 6.97266L5.28613 3.97949L8.27441 0.991211C8.48926 0.78125 8.48926 0.419922 8.27441 0.205078C8.05469 -0.00488281 7.69824 -0.00976562 7.48828 0.200195L4.49512 3.19336L1.50684 0.200195C1.30176 -0.00488281 0.930664 -0.0146484 0.720703 0.205078C0.505859 0.419922 0.510742 0.786133 0.71582 0.991211L3.70898 3.97949L0.71582 6.97266Z" fill="white"/>
</svg>
