<svg width="40" height="40" viewBox="0 0 40 40" fill="none" xmlns="http://www.w3.org/2000/svg">
<path fill-rule="evenodd" clip-rule="evenodd" d="M20 22.5C18.6217 22.5 17.5 21.3783 17.5 20C17.5 18.6217 18.6217 17.5 20 17.5C21.3783 17.5 22.5 18.6217 22.5 20C22.5 21.3783 21.3783 22.5 20 22.5M20 14.1667C16.7833 14.1667 14.1667 16.7833 14.1667 20C14.1667 23.2167 16.7833 25.8333 20 25.8333C23.2167 25.8333 25.8333 23.2167 25.8333 20C25.8333 16.7833 23.2167 14.1667 20 14.1667M20.3661 28.3293C13.1895 28.496 8.50781 22.3577 6.95447 19.9927C8.66447 17.3177 12.9711 11.841 19.6345 11.671C26.7828 11.4893 31.4911 17.6427 33.0445 20.0077C31.3361 22.6826 27.0278 28.1593 20.3661 28.3293M36.4462 19.171C35.3828 17.3177 29.5095 8.02766 19.5495 8.33933C10.3362 8.57266 4.97782 16.6893 3.55449 19.171C3.25949 19.6843 3.25949 20.316 3.55449 20.8293C4.60282 22.6577 10.2695 31.666 20.0412 31.666C20.1778 31.666 20.3145 31.6643 20.4512 31.661C29.6628 31.426 35.0228 23.311 36.4462 20.8293C36.7395 20.316 36.7395 19.6843 36.4462 19.171" fill="black"/>
<mask id="mask0" mask-type="alpha" maskUnits="userSpaceOnUse" x="3" y="8" width="34" height="24">
<path fill-rule="evenodd" clip-rule="evenodd" d="M20 22.5C18.6217 22.5 17.5 21.3783 17.5 20C17.5 18.6217 18.6217 17.5 20 17.5C21.3783 17.5 22.5 18.6217 22.5 20C22.5 21.3783 21.3783 22.5 20 22.5M20 14.1667C16.7833 14.1667 14.1667 16.7833 14.1667 20C14.1667 23.2167 16.7833 25.8333 20 25.8333C23.2167 25.8333 25.8333 23.2167 25.8333 20C25.8333 16.7833 23.2167 14.1667 20 14.1667M20.3661 28.3293C13.1895 28.496 8.50781 22.3577 6.95447 19.9927C8.66447 17.3177 12.9711 11.841 19.6345 11.671C26.7828 11.4893 31.4911 17.6427 33.0445 20.0077C31.3361 22.6826 27.0278 28.1593 20.3661 28.3293M36.4462 19.171C35.3828 17.3177 29.5095 8.02766 19.5495 8.33933C10.3362 8.57266 4.97782 16.6893 3.55449 19.171C3.25949 19.6843 3.25949 20.316 3.55449 20.8293C4.60282 22.6577 10.2695 31.666 20.0412 31.666C20.1778 31.666 20.3145 31.6643 20.4512 31.661C29.6628 31.426 35.0228 23.311 36.4462 20.8293C36.7395 20.316 36.7395 19.6843 36.4462 19.171" fill="white"/>
</mask>
<g mask="url(#mask0)">
</g>
</svg>
