<svg width="54" height="54" viewBox="0 0 54 54" fill="none" xmlns="http://www.w3.org/2000/svg">
<path fill-rule="evenodd" clip-rule="evenodd" d="M27 30.375C25.1392 30.375 23.625 28.8607 23.625 27C23.625 25.1392 25.1392 23.625 27 23.625C28.8608 23.625 30.375 25.1392 30.375 27C30.375 28.8607 28.8608 30.375 27 30.375ZM27 19.125C22.6575 19.125 19.125 22.6575 19.125 27C19.125 31.3425 22.6575 34.875 27 34.875C31.3425 34.875 34.875 31.3425 34.875 27C34.875 22.6575 31.3425 19.125 27 19.125ZM27.4943 38.2446C17.8058 38.4696 11.4855 30.1828 9.38854 26.9901C11.697 23.3788 17.511 15.9853 26.5065 15.7558C36.1568 15.5106 42.513 23.8176 44.61 27.0103C42.3038 30.6216 36.4875 38.0151 27.4943 38.2446ZM49.2023 25.8808C47.7668 23.3788 39.8378 10.8373 26.3918 11.2581C13.9538 11.5731 6.72006 22.5306 4.79856 25.8808C4.40031 26.5738 4.40031 27.4266 4.79856 28.1196C6.21381 30.5878 13.8638 42.7491 27.0556 42.7491C27.2401 42.7491 27.4246 42.7468 27.6091 42.7423C40.0448 42.4251 47.2808 31.4698 49.2023 28.1196C49.5983 27.4266 49.5983 26.5738 49.2023 25.8808Z" fill="#10DB85"/>
<mask id="mask0" mask-type="alpha" maskUnits="userSpaceOnUse" x="4" y="11" width="46" height="32">
<path fill-rule="evenodd" clip-rule="evenodd" d="M27 30.375C25.1392 30.375 23.625 28.8607 23.625 27C23.625 25.1392 25.1392 23.625 27 23.625C28.8608 23.625 30.375 25.1392 30.375 27C30.375 28.8607 28.8608 30.375 27 30.375ZM27 19.125C22.6575 19.125 19.125 22.6575 19.125 27C19.125 31.3425 22.6575 34.875 27 34.875C31.3425 34.875 34.875 31.3425 34.875 27C34.875 22.6575 31.3425 19.125 27 19.125ZM27.4943 38.2446C17.8058 38.4696 11.4855 30.1828 9.38854 26.9901C11.697 23.3788 17.511 15.9853 26.5065 15.7558C36.1568 15.5106 42.513 23.8176 44.61 27.0103C42.3038 30.6216 36.4875 38.0151 27.4943 38.2446ZM49.2023 25.8808C47.7668 23.3788 39.8378 10.8373 26.3918 11.2581C13.9538 11.5731 6.72006 22.5306 4.79856 25.8808C4.40031 26.5738 4.40031 27.4266 4.79856 28.1196C6.21381 30.5878 13.8638 42.7491 27.0556 42.7491C27.2401 42.7491 27.4246 42.7468 27.6091 42.7423C40.0448 42.4251 47.2808 31.4698 49.2023 28.1196C49.5983 27.4266 49.5983 26.5738 49.2023 25.8808Z" fill="white"/>
</mask>
<g mask="url(#mask0)">
</g>
</svg>
