<svg width="40" height="40" viewBox="0 0 40 40" fill="none" xmlns="http://www.w3.org/2000/svg">
<path fill-rule="evenodd" clip-rule="evenodd" d="M29.6006 25.9L20.0006 31.4116L10.4006 25.9L13.2239 24.6983L19.1706 28.1116C19.4272 28.26 19.7139 28.3333 20.0006 28.3333C20.2872 28.3333 20.5722 28.26 20.8306 28.1116L26.7772 24.6966L29.6006 25.9ZM19.1706 21.445C19.4272 21.5933 19.7139 21.6666 20.0006 21.6666C20.2872 21.6666 20.5722 21.5933 20.8306 21.445L26.7772 18.03L29.6006 19.2333L20.0006 24.745L10.4006 19.2333L13.2239 18.03L19.1706 21.445ZM20.0006 8.47832L29.6006 12.5667L20.0006 18.0783L10.4006 12.5667L20.0006 8.47832ZM34.9972 18.9133C34.9589 18.2817 34.5672 17.7267 33.9855 17.4783L30.3989 15.9517L34.1639 13.79C34.7122 13.4767 35.0339 12.8783 34.9972 12.2467C34.9589 11.6167 34.5672 11.06 33.9855 10.8117L20.6522 5.13332C20.2355 4.95499 19.7639 4.95499 19.3472 5.13332L6.01386 10.8117C5.43219 11.06 5.04053 11.6167 5.00386 12.2467C4.96553 12.8783 5.28886 13.4767 5.83719 13.79L9.60053 15.9517L6.01386 17.4783C5.43219 17.7267 5.04053 18.2817 5.00386 18.9133C4.96553 19.545 5.28886 20.1433 5.83719 20.4567L9.60053 22.6183L6.01386 24.145C5.43219 24.3933 5.04053 24.9483 5.00386 25.58C4.96553 26.2117 5.28886 26.81 5.83719 27.1233L19.1705 34.7783C19.4272 34.9267 19.7139 35 20.0005 35C20.2872 35 20.5722 34.9267 20.8305 34.7783L34.1639 27.1233C34.7122 26.81 35.0339 26.2117 34.9972 25.58C34.9589 24.95 34.5672 24.3933 33.9872 24.145L30.4005 22.6167L34.1639 20.4567C34.7122 20.1433 35.0339 19.545 34.9972 18.9133Z" fill="#10DB85"/>
<mask id="mask0" mask-type="alpha" maskUnits="userSpaceOnUse" x="5" y="4" width="30" height="31">
<path fill-rule="evenodd" clip-rule="evenodd" d="M29.6006 25.9L20.0006 31.4116L10.4006 25.9L13.2239 24.6983L19.1706 28.1116C19.4272 28.26 19.7139 28.3333 20.0006 28.3333C20.2872 28.3333 20.5722 28.26 20.8306 28.1116L26.7772 24.6966L29.6006 25.9ZM19.1706 21.445C19.4272 21.5933 19.7139 21.6666 20.0006 21.6666C20.2872 21.6666 20.5722 21.5933 20.8306 21.445L26.7772 18.03L29.6006 19.2333L20.0006 24.745L10.4006 19.2333L13.2239 18.03L19.1706 21.445ZM20.0006 8.47832L29.6006 12.5667L20.0006 18.0783L10.4006 12.5667L20.0006 8.47832ZM34.9972 18.9133C34.9589 18.2817 34.5672 17.7267 33.9855 17.4783L30.3989 15.9517L34.1639 13.79C34.7122 13.4767 35.0339 12.8783 34.9972 12.2467C34.9589 11.6167 34.5672 11.06 33.9855 10.8117L20.6522 5.13332C20.2355 4.95499 19.7639 4.95499 19.3472 5.13332L6.01386 10.8117C5.43219 11.06 5.04053 11.6167 5.00386 12.2467C4.96553 12.8783 5.28886 13.4767 5.83719 13.79L9.60053 15.9517L6.01386 17.4783C5.43219 17.7267 5.04053 18.2817 5.00386 18.9133C4.96553 19.545 5.28886 20.1433 5.83719 20.4567L9.60053 22.6183L6.01386 24.145C5.43219 24.3933 5.04053 24.9483 5.00386 25.58C4.96553 26.2117 5.28886 26.81 5.83719 27.1233L19.1705 34.7783C19.4272 34.9267 19.7139 35 20.0005 35C20.2872 35 20.5722 34.9267 20.8305 34.7783L34.1639 27.1233C34.7122 26.81 35.0339 26.2117 34.9972 25.58C34.9589 24.95 34.5672 24.3933 33.9872 24.145L30.4005 22.6167L34.1639 20.4567C34.7122 20.1433 35.0339 19.545 34.9972 18.9133Z" fill="white"/>
</mask>
<g mask="url(#mask0)">
</g>
</svg>
