<svg width="54" height="54" viewBox="0 0 54 54" fill="none" xmlns="http://www.w3.org/2000/svg">
<path fill-rule="evenodd" clip-rule="evenodd" d="M39.9607 34.965L27.0007 42.4057L14.0407 34.965L17.8522 33.3427L25.8802 37.9507C26.2267 38.151 26.6137 38.25 27.0007 38.25C27.3877 38.25 27.7725 38.151 28.1212 37.9507L36.1492 33.3405L39.9607 34.965ZM25.8802 28.9507C26.2267 29.151 26.6137 29.25 27.0007 29.25C27.3877 29.25 27.7725 29.151 28.1212 28.9507L36.1492 24.3405L39.9607 25.965L27.0007 33.4057L14.0407 25.965L17.8522 24.3405L25.8802 28.9507ZM27.0007 11.4458L39.9607 16.965L27.0007 24.4058L14.0407 16.965L27.0007 11.4458ZM47.2462 25.533C47.1945 24.6803 46.6657 23.931 45.8805 23.5958L41.0385 21.5348L46.1212 18.6165C46.8615 18.1935 47.2957 17.3858 47.2462 16.533C47.1945 15.6825 46.6657 14.931 45.8805 14.5958L27.8805 6.93001C27.318 6.68926 26.6812 6.68926 26.1187 6.93001L8.11871 14.5958C7.33346 14.931 6.80471 15.6825 6.75521 16.533C6.70346 17.3858 7.13996 18.1935 7.88021 18.6165L12.9607 21.5348L8.11871 23.5958C7.33346 23.931 6.80471 24.6803 6.75521 25.533C6.70346 26.3858 7.13996 27.1935 7.88021 27.6165L12.9607 30.5348L8.11871 32.5958C7.33346 32.931 6.80471 33.6803 6.75521 34.533C6.70346 35.3858 7.13996 36.1935 7.88021 36.6165L25.8802 46.9508C26.2267 47.151 26.6137 47.25 27.0007 47.25C27.3877 47.25 27.7725 47.151 28.1212 46.9508L46.1212 36.6165C46.8615 36.1935 47.2957 35.3858 47.2462 34.533C47.1945 33.6825 46.6657 32.931 45.8827 32.5958L41.0407 30.5325L46.1212 27.6165C46.8615 27.1935 47.2957 26.3858 47.2462 25.533Z" fill="#10DB85"/>
<mask id="mask0" mask-type="alpha" maskUnits="userSpaceOnUse" x="6" y="6" width="42" height="42">
<path fill-rule="evenodd" clip-rule="evenodd" d="M39.9607 34.965L27.0007 42.4058L14.0407 34.965L17.8522 33.3427L25.8802 37.9507C26.2267 38.151 26.6137 38.25 27.0007 38.25C27.3877 38.25 27.7725 38.151 28.1212 37.9507L36.1492 33.3405L39.9607 34.965ZM25.8802 28.9507C26.2267 29.151 26.6137 29.25 27.0007 29.25C27.3877 29.25 27.7725 29.151 28.1212 28.9507L36.1492 24.3405L39.9607 25.965L27.0007 33.4057L14.0407 25.965L17.8522 24.3405L25.8802 28.9507ZM27.0007 11.4458L39.9607 16.965L27.0007 24.4058L14.0407 16.965L27.0007 11.4458ZM47.2462 25.533C47.1945 24.6803 46.6657 23.931 45.8805 23.5958L41.0385 21.5348L46.1212 18.6165C46.8615 18.1935 47.2957 17.3858 47.2462 16.533C47.1945 15.6825 46.6657 14.931 45.8805 14.5958L27.8805 6.93001C27.318 6.68926 26.6812 6.68926 26.1187 6.93001L8.11871 14.5958C7.33346 14.931 6.80471 15.6825 6.75521 16.533C6.70346 17.3858 7.13996 18.1935 7.88021 18.6165L12.9607 21.5348L8.11871 23.5958C7.33346 23.931 6.80471 24.6803 6.75521 25.533C6.70346 26.3858 7.13996 27.1935 7.88021 27.6165L12.9607 30.5348L8.11871 32.5958C7.33346 32.931 6.80471 33.6803 6.75521 34.533C6.70346 35.3858 7.13996 36.1935 7.88021 36.6165L25.8802 46.9508C26.2267 47.151 26.6137 47.25 27.0007 47.25C27.3877 47.25 27.7725 47.151 28.1212 46.9508L46.1212 36.6165C46.8615 36.1935 47.2957 35.3858 47.2462 34.533C47.1945 33.6825 46.6657 32.931 45.8827 32.5958L41.0407 30.5325L46.1212 27.6165C46.8615 27.1935 47.2957 26.3858 47.2462 25.533Z" fill="white"/>
</mask>
<g mask="url(#mask0)">
</g>
</svg>
