<?xml version="1.0" encoding="UTF-8"?>
<svg width="32px" height="32px" viewBox="0 0 32 32" version="1.1" xmlns="http://www.w3.org/2000/svg" xmlns:xlink="http://www.w3.org/1999/xlink">
    <!-- Generator: sketchtool 59 (101010) - https://sketch.com -->
    <title>5B2B9040-4E47-43E7-8652-AEA963AC229E</title>
    <desc>Created with sketchtool.</desc>
    <defs>
        <path d="M4.21906667,9.66666667 C4.0244,9.66666667 3.83106667,9.582 3.69906667,9.418 L0.4804,5.418 C0.281733333,5.17066667 0.2844,4.81733333 0.487733333,4.57333333 L3.82106667,0.573333333 C4.0564,0.290666667 4.47706667,0.252666667 4.7604,0.488 C5.04306667,0.723333333 5.08106667,1.144 4.84506667,1.42666667 L1.86173333,5.00733333 L4.7384,8.582 C4.96906667,8.86866667 4.92373333,9.28866667 4.6364,9.51933333 C4.51373333,9.61866667 4.36573333,9.66666667 4.21906667,9.66666667" id="path-1"></path>
    </defs>
    <g id="Visual-design-proposal" stroke="none" stroke-width="1" fill="none" fill-rule="evenodd">
        <g id="Home" transform="translate(-291.000000, -193.000000)">
            <g id="Collapse-sidebar" transform="translate(291.000000, 193.000000)">
                <g id="03)-Button:-★/2)-32px---Small/2)-Outline/7)-Basic">
                    <g id="🎨-Stroke-&amp;-Background">
                        <g id="🎨-Background" fill="#FFFFFF">
                            <path d="M1.2819426,-5.17920154e-17 L30.7180574,5.17920154e-17 C31.1638168,-3.00926524e-17 31.3254599,0.0464128056 31.4884229,0.133566352 C31.6513858,0.220719898 31.7792801,0.348614185 31.8664336,0.511577148 C31.9535872,0.674540111 32,0.83618323 32,1.2819426 L32,30.7180574 C32,31.1638168 31.9535872,31.3254599 31.8664336,31.4884229 C31.7792801,31.6513858 31.6513858,31.7792801 31.4884229,31.8664336 C31.3254599,31.9535872 31.1638168,32 30.7180574,32 L1.2819426,32 C0.83618323,32 0.674540111,31.9535872 0.511577148,31.8664336 C0.348614185,31.7792801 0.220719898,31.6513858 0.133566352,31.4884229 C0.0464128056,31.3254599 2.00617683e-17,31.1638168 -3.45280103e-17,30.7180574 L3.45280103e-17,1.2819426 C-2.00617683e-17,0.83618323 0.0464128056,0.674540111 0.133566352,0.511577148 C0.220719898,0.348614185 0.348614185,0.220719898 0.511577148,0.133566352 C0.674540111,0.0464128056 0.83618323,3.00926524e-17 1.2819426,-5.17920154e-17 Z"></path>
                        </g>
                        <g id="🎨-Stroke" stroke="#345669" stroke-width="2">
                            <path d="M0.985076338,1.01438868 C0.984436338,1.01471284 0.983805105,1.0150431 0.983176007,1.01537955 C0.985063302,1.01437021 0.987049422,1.01311549 0.989076907,1.01167284 Z M1.00740355,1.00740355 C1.00221025,1.03675011 1,1.10094559 1,1.2819426 L1,30.7180574 C1,30.8990544 1.00221025,30.9632499 1.00740355,30.9925965 C1.03675011,30.9977897 1.10094559,31 1.2819426,31 L30.7180574,31 C30.8990544,31 30.9632499,30.9977897 30.9925965,30.9925965 C30.9977897,30.9632499 31,30.8990544 31,30.7180574 L31,1.2819426 C31,1.10094559 30.9977897,1.03675011 30.9925965,1.00740355 C30.9632499,1.00221025 30.8990544,1 30.7180574,1 L1.2819426,1 C1.10094559,1 1.03675011,1.00221025 1.00740355,1.00740355 Z M0.985671663,30.9860607 C0.984824433,30.9855379 0.983991006,30.9850563 0.983176007,30.9846205 C0.984900842,30.9855429 0.986641721,30.9864189 0.988535353,30.9872498 Z M30.9860607,31.0143283 C30.9855379,31.0151756 30.9850563,31.016009 30.9846205,31.016824 C30.9855429,31.0150992 30.9864189,31.0133583 30.9872498,31.0114646 Z M31.0143283,1.0139393 C31.0151756,1.01446206 31.016009,1.01494368 31.016824,1.01537955 C31.0150992,1.0144571 31.0133583,1.01358108 31.0114646,1.01275019 Z" id="🎨-Background"></path>
                        </g>
                    </g>
                    <g id="Icon" transform="translate(13.000000, 11.000000)">
                        <mask id="mask-2" fill="white">
                            <use xlink:href="#path-1"></use>
                        </mask>
                        <use id="🎨-Icon-Сolor" fill="#03314B" xlink:href="#path-1"></use>
                    </g>
                </g>
            </g>
        </g>
    </g>
</svg>