<svg width="17" height="14" viewBox="0 0 17 14" fill="none" xmlns="http://www.w3.org/2000/svg">
<path d="M16.75 6.6543C16.75 6.4873 16.6797 6.33789 16.5479 6.21484L10.6768 0.326172C10.5098 0.15918 10.3604 0.0976562 10.2021 0.0976562C9.86816 0.0976562 9.62207 0.34375 9.62207 0.668945C9.62207 0.835938 9.6748 0.985352 9.78027 1.09961L12.4082 3.75391L15.001 6.16211L12.9619 6.06543H1.00879C0.674805 6.06543 0.428711 6.31152 0.428711 6.6543C0.428711 6.99707 0.674805 7.24316 1.00879 7.24316H12.9619L15.0098 7.14648L12.4082 9.55469L9.78027 12.209C9.6748 12.3145 9.62207 12.4727 9.62207 12.6309C9.62207 12.9561 9.86816 13.2021 10.2021 13.2021C10.3604 13.2021 10.501 13.1494 10.6328 13.0264L16.5479 7.09375C16.6797 6.9707 16.75 6.82129 16.75 6.6543Z" fill="white"/>
</svg>
