<svg width="31" height="31" viewBox="0 0 31 31" fill="none" xmlns="http://www.w3.org/2000/svg">
<path d="M12.7969 24.6406C15.4062 24.6406 17.8125 23.7969 19.7812 22.3906L27.1875 29.7969C27.5312 30.1406 27.9844 30.3125 28.4688 30.3125C29.4844 30.3125 30.2031 29.5312 30.2031 28.5312C30.2031 28.0625 30.0469 27.625 29.7031 27.2812L22.3438 19.9062C23.8906 17.875 24.8125 15.3594 24.8125 12.625C24.8125 6.01562 19.4062 0.609375 12.7969 0.609375C6.1875 0.609375 0.78125 6.01562 0.78125 12.625C0.78125 19.2344 6.1875 24.6406 12.7969 24.6406ZM12.7969 22.0469C7.64062 22.0469 3.375 17.7812 3.375 12.625C3.375 7.46875 7.64062 3.20312 12.7969 3.20312C17.9531 3.20312 22.2188 7.46875 22.2188 12.625C22.2188 17.7812 17.9531 22.0469 12.7969 22.0469Z" fill="black"/>
</svg>
