<svg width="14" height="15" viewBox="0 0 14 15" fill="none" xmlns="http://www.w3.org/2000/svg">
<path fill-rule="evenodd" clip-rule="evenodd" d="M12.5753 5.33534C12.5753 5.21291 12.5728 5.09103 12.5671 4.96982C13.1279 4.57077 13.6154 4.07284 14 3.50589C13.4853 3.7309 12.9315 3.8826 12.3505 3.95096C12.9435 3.60103 13.3988 3.04714 13.6135 2.38698C13.0584 2.71083 12.4439 2.94638 11.7897 3.07322C11.2656 2.52369 10.5191 2.17993 9.6931 2.17993C8.10673 2.17993 6.82035 3.44619 6.82035 5.00714C6.82035 5.22906 6.84561 5.44477 6.89483 5.65181C4.50772 5.53368 2.39092 4.40854 0.9744 2.69777C0.727496 3.1155 0.585424 3.60103 0.585424 4.11881C0.585424 5.0998 1.0925 5.96574 1.86357 6.47233C1.3925 6.45806 0.949816 6.33061 0.562688 6.1186C0.562016 6.1304 0.562016 6.14225 0.562016 6.15465C0.562016 7.52416 1.55226 8.66732 2.86642 8.92657C2.62522 8.99117 2.37132 9.02601 2.10924 9.02601C1.92422 9.02601 1.74423 9.00799 1.56929 8.97502C1.93497 10.0983 2.99527 10.9158 4.25258 10.9388C3.26934 11.6972 2.03095 12.1491 0.685216 12.1491C0.453432 12.1491 0.22484 12.1361 0 12.1099C1.27126 12.9118 2.78057 13.3799 4.40289 13.3799C9.68615 13.3799 12.5753 9.07138 12.5753 5.33534Z" fill="black"/>
<mask id="mask0" mask-type="alpha" maskUnits="userSpaceOnUse" x="0" y="2" width="14" height="12">
<path fill-rule="evenodd" clip-rule="evenodd" d="M12.5753 5.33534C12.5753 5.21291 12.5728 5.09103 12.5671 4.96982C13.1279 4.57077 13.6154 4.07284 14 3.50589C13.4853 3.7309 12.9315 3.8826 12.3505 3.95096C12.9435 3.60103 13.3988 3.04714 13.6135 2.38698C13.0584 2.71083 12.4439 2.94638 11.7897 3.07322C11.2656 2.52369 10.5191 2.17993 9.6931 2.17993C8.10673 2.17993 6.82035 3.44619 6.82035 5.00714C6.82035 5.22906 6.84561 5.44477 6.89483 5.65181C4.50772 5.53368 2.39092 4.40854 0.9744 2.69777C0.727496 3.1155 0.585424 3.60103 0.585424 4.11881C0.585424 5.0998 1.0925 5.96574 1.86357 6.47233C1.3925 6.45806 0.949816 6.33061 0.562688 6.1186C0.562016 6.1304 0.562016 6.14225 0.562016 6.15465C0.562016 7.52416 1.55226 8.66732 2.86642 8.92657C2.62522 8.99117 2.37132 9.02601 2.10924 9.02601C1.92422 9.02601 1.74423 9.00799 1.56929 8.97502C1.93497 10.0983 2.99527 10.9158 4.25258 10.9388C3.26934 11.6972 2.03095 12.1491 0.685216 12.1491C0.453432 12.1491 0.22484 12.1361 0 12.1099C1.27126 12.9118 2.78057 13.3799 4.40289 13.3799C9.68615 13.3799 12.5753 9.07138 12.5753 5.33534Z" fill="white"/>
</mask>
<g mask="url(#mask0)">
<rect y="0.5" width="14" height="14" fill="black"/>
</g>
</svg>
