<svg width="16" height="11" viewBox="0 0 16 11" fill="none" xmlns="http://www.w3.org/2000/svg">
<path d="M3.01758 10.3027H9.14062C10.5703 10.3027 11.4258 9.4707 11.4258 8.04688V7.23828L13.6406 9.11328C13.875 9.30664 14.1328 9.44141 14.373 9.44141C14.8887 9.44141 15.2285 9.06055 15.2285 8.51562V2.45703C15.2285 1.91211 14.8887 1.53125 14.373 1.53125C14.1328 1.53125 13.875 1.66602 13.6406 1.85938L11.4258 3.73438V2.93164C11.4258 1.50195 10.5703 0.669922 9.14062 0.669922H3.01758C1.65234 0.669922 0.732422 1.50195 0.732422 2.93164V8.04688C0.732422 9.4707 1.58789 10.3027 3.01758 10.3027ZM3.18164 9.42383C2.2207 9.42383 1.67578 8.92578 1.67578 7.90625V3.06641C1.67578 2.05273 2.2207 1.55469 3.18164 1.55469H8.97656C9.93164 1.55469 10.4824 2.05273 10.4824 3.06641V7.90625C10.4824 8.92578 9.93164 9.42383 8.97656 9.42383H3.18164ZM14.0801 8.31641L11.4258 6.125V4.84766L14.0801 2.65625C14.1328 2.61523 14.168 2.5918 14.2207 2.5918C14.291 2.5918 14.3203 2.64453 14.3203 2.72656V8.24609C14.3203 8.32812 14.291 8.38672 14.2207 8.38672C14.168 8.38672 14.1328 8.35156 14.0801 8.31641Z" fill="#757575"/>
</svg>
