<svg width="10" height="13" viewBox="0 0 10 13" fill="none" xmlns="http://www.w3.org/2000/svg">
<path d="M1.88867 12.7676H8.11133C9.32422 12.7676 9.92773 12.1523 9.92773 10.9336V5.61328C9.92773 4.85742 9.83984 4.5293 9.37109 4.04883L6.14258 0.761719C5.69727 0.304688 5.32812 0.205078 4.67188 0.205078H1.88867C0.681641 0.205078 0.0722656 0.826172 0.0722656 2.04492V10.9336C0.0722656 12.1582 0.675781 12.7676 1.88867 12.7676ZM1.92969 11.8242C1.32617 11.8242 1.01562 11.502 1.01562 10.916V2.0625C1.01562 1.48242 1.32617 1.14844 1.93555 1.14844H4.54297V4.55273C4.54297 5.29102 4.91211 5.6543 5.64453 5.6543H8.98438V10.916C8.98438 11.502 8.67383 11.8242 8.06445 11.8242H1.92969ZM5.75 4.76953C5.51562 4.76953 5.42773 4.67578 5.42773 4.44141V1.33008L8.80273 4.76953H5.75ZM7.15625 7.26562H2.70898C2.49805 7.26562 2.33984 7.42383 2.33984 7.62305C2.33984 7.82812 2.49805 7.98633 2.70898 7.98633H7.15625C7.36133 7.98633 7.51367 7.82812 7.51367 7.62305C7.51367 7.42383 7.36133 7.26562 7.15625 7.26562ZM7.15625 9.31055H2.70898C2.49805 9.31055 2.33984 9.47461 2.33984 9.67969C2.33984 9.87891 2.49805 10.0312 2.70898 10.0312H7.15625C7.36133 10.0312 7.51367 9.87891 7.51367 9.67969C7.51367 9.47461 7.36133 9.31055 7.15625 9.31055Z" fill="#757575"/>
</svg>
