<svg width="15" height="15" viewBox="0 0 15 15" fill="none" xmlns="http://www.w3.org/2000/svg">
<g clip-path="url(#clip0)">
<path d="M7.67664 0.504883C8.98977 0.506954 9.25442 0.516892 9.9045 0.546553C10.6493 0.580525 11.158 0.698831 11.6031 0.871831C12.0633 1.05064 12.4536 1.28991 12.8426 1.67894C13.2316 2.068 13.4709 2.45825 13.6498 2.91841C13.8227 3.36353 13.941 3.87222 13.975 4.61705C14.0091 5.36344 14.0171 5.60175 14.0171 7.50225L14.0171 7.68105C14.0166 9.41862 14.008 9.6651 13.975 10.3874C13.941 11.1322 13.8227 11.6409 13.6498 12.0861C13.4709 12.5462 13.2316 12.9365 12.8426 13.3255C12.4536 13.7146 12.0633 13.9538 11.6031 14.1327C11.158 14.3056 10.6493 14.4239 9.9045 14.4579C9.15812 14.492 8.91981 14.5 7.01934 14.5L6.84053 14.5C5.10293 14.4995 4.85645 14.4909 4.13414 14.4579C3.38931 14.4239 2.88062 14.3056 2.4355 14.1327C1.97534 13.9538 1.58509 13.7146 1.19603 13.3255C0.807004 12.9365 0.567726 12.5462 0.388921 12.0861C0.215921 11.6409 0.0976151 11.1322 0.0636429 10.3874C0.0339816 9.73733 0.0240435 9.47268 0.0219727 8.15955V6.84493C0.0240435 5.53179 0.0339816 5.26713 0.0636429 4.61705C0.0976151 3.87222 0.215921 3.36353 0.388921 2.91841C0.567726 2.45825 0.807004 2.068 1.19603 1.67894C1.58509 1.28991 1.97534 1.05064 2.4355 0.871831C2.88062 0.698831 3.38931 0.580525 4.13414 0.546553C4.78422 0.516892 5.04888 0.506954 6.36202 0.504883H7.67664ZM7.53263 1.76554H6.50604C5.1014 1.767 4.85572 1.77581 4.19162 1.80611C3.50934 1.83722 3.13881 1.95122 2.89223 2.04705C2.56559 2.174 2.33248 2.32564 2.08762 2.57053C1.84273 2.81539 1.69109 3.0485 1.56414 3.37514C1.46831 3.62172 1.35431 3.99225 1.3232 4.67453C1.2929 5.33863 1.28409 5.58431 1.28263 6.98895V8.01554C1.28409 9.42015 1.2929 9.66584 1.3232 10.3299C1.35431 11.0122 1.46831 11.3827 1.56414 11.6293C1.69109 11.956 1.84275 12.1891 2.08762 12.4339C2.33248 12.6788 2.56559 12.8305 2.89223 12.9574C3.13881 13.0532 3.50934 13.1672 4.19162 13.1984C4.85564 13.2287 5.10128 13.2375 6.506 13.2389H7.53267C8.93737 13.2375 9.18303 13.2287 9.84703 13.1984C10.5293 13.1672 10.8998 13.0532 11.1464 12.9574C11.4731 12.8305 11.7062 12.6788 11.951 12.4339C12.1959 12.1891 12.3476 11.956 12.4745 11.6293C12.5703 11.3827 12.6843 11.0122 12.7154 10.3299C12.7457 9.66584 12.7546 9.42015 12.756 8.01554V6.98895C12.7546 5.58431 12.7457 5.33863 12.7154 4.67453C12.6843 3.99225 12.5703 3.62172 12.4745 3.37514C12.3476 3.0485 12.1959 2.81539 11.951 2.57053C11.7062 2.32564 11.4731 2.174 11.1464 2.04705C10.8998 1.95122 10.5293 1.83722 9.84703 1.80611C9.18293 1.77581 8.93724 1.767 7.53263 1.76554ZM7.01934 3.90878C9.00395 3.90878 10.6128 5.51761 10.6128 7.50225C10.6128 9.48686 9.00395 11.0957 7.01934 11.0957C5.0347 11.0957 3.42587 9.48686 3.42587 7.50225C3.42587 5.51761 5.0347 3.90878 7.01934 3.90878ZM7.01934 5.16964C5.73106 5.16964 4.68673 6.21397 4.68673 7.50225C4.68673 8.7905 5.73106 9.83483 7.01934 9.83483C8.30759 9.83483 9.35192 8.7905 9.35192 7.50225C9.35192 6.21397 8.30759 5.16964 7.01934 5.16964ZM10.7548 2.92705C11.2185 2.92705 11.5945 3.30303 11.5945 3.7668C11.5945 4.23058 11.2185 4.60653 10.7548 4.60653C10.291 4.60653 9.91503 4.23058 9.91503 3.7668C9.91503 3.30303 10.291 2.92705 10.7548 2.92705Z" fill="black"/>
</g>
<defs>
<clipPath id="clip0">
<rect width="14" height="14" fill="white" transform="translate(0.0214844 0.5)"/>
</clipPath>
</defs>
</svg>
